<?xml version="1.0" standalone="no"?>
<!DOCTYPE svg PUBLIC "-//W3C//DTD SVG 20010904//EN"
 "http://www.w3.org/TR/2001/REC-SVG-20010904/DTD/svg10.dtd">
<svg version="1.0" xmlns="http://www.w3.org/2000/svg"
 width="406.000000pt" height="429.000000pt" viewBox="0 0 406.000000 429.000000"
 preserveAspectRatio="xMidYMid meet">

<g transform="translate(0.000000,429.000000) scale(0.100000,-0.100000)"
fill="#000000" stroke="none">
<path d="M1297 4105 c-92 -47 -127 -195 -133 -545 l-3 -205 -59 -56 c-70 -66
-152 -103 -268 -118 -75 -10 -81 -13 -117 -53 -156 -177 -298 -491 -361 -798
-41 -204 -49 -276 -50 -450 0 -344 79 -612 265 -890 76 -114 237 -278 334
-342 141 -91 256 -121 465 -120 433 2 936 165 1293 419 92 66 297 259 297 279
0 22 -11 16 -46 -24 -47 -56 -185 -170 -284 -237 -101 -68 -306 -169 -445
-221 -126 -46 -367 -107 -510 -129 -161 -25 -397 -23 -497 3 -255 68 -507 305
-665 627 -64 129 -120 313 -144 470 -16 111 -14 358 6 490 44 303 163 635 294
821 l48 70 89 17 c130 25 212 68 319 168 129 121 188 153 341 184 74 15 114
38 114 66 0 38 -237 -35 -332 -103 l-28 -19 0 193 c0 285 23 440 65 446 45 6
87 -39 146 -158 88 -176 223 -331 341 -391 20 -10 66 -26 100 -34 69 -16 342
-40 563 -51 l140 -6 195 208 c318 342 332 354 416 354 31 0 45 -8 79 -44 127
-132 182 -599 99 -844 -24 -73 -24 -74 -8 -160 11 -59 15 -119 12 -187 -5
-104 -15 -133 -73 -214 -32 -44 -24 -53 14 -17 37 35 87 129 96 179 10 53 20
53 43 -1 34 -80 42 -123 42 -233 0 -106 0 -106 49 -210 172 -366 240 -724 181
-954 -22 -86 -82 -205 -138 -275 -177 -219 -483 -390 -805 -450 -83 -16 -117
-27 -129 -42 -10 -11 -18 -24 -18 -29 0 -14 58 -10 151 11 283 62 521 192 725
395 296 294 358 586 223 1052 -33 114 -100 286 -149 383 -32 62 -34 70 -35
185 -2 140 -22 214 -86 307 -25 37 -39 69 -39 90 -1 18 -7 61 -14 96 -12 53
-12 68 0 90 51 103 66 405 30 592 -69 353 -199 439 -387 257 -30 -29 -142
-146 -249 -261 l-195 -209 -140 7 c-358 17 -554 43 -640 85 -125 62 -249 204
-344 393 -42 84 -65 119 -90 135 -40 27 -56 28 -94 8z"/>
<path d="M1327 3943 c-37 -36 55 -280 113 -298 33 -10 33 -3 -2 51 -42 66 -77
152 -78 191 0 51 -15 75 -33 56z"/>
<path d="M3092 3848 c-21 -21 -13 -26 34 -20 55 6 87 -9 115 -55 11 -18 27
-33 35 -33 27 0 14 42 -25 81 -35 36 -43 39 -93 39 -30 0 -59 -5 -66 -12z"/>
<path d="M1300 3765 c0 -51 34 -133 72 -172 57 -59 66 -38 14 35 -19 26 -42
76 -52 110 -19 69 -34 81 -34 27z"/>
<path d="M3042 3760 c-23 -10 -59 -32 -79 -47 -39 -30 -117 -123 -109 -130 3
-3 35 20 73 49 37 30 96 70 131 89 59 32 73 51 41 56 -8 2 -33 -6 -57 -17z"/>
<path d="M3180 3642 c0 -5 9 -17 21 -28 30 -27 41 -50 59 -129 11 -50 21 -71
33 -73 39 -8 9 151 -39 208 -24 28 -74 43 -74 22z"/>
<path d="M2962 3600 c-52 -37 -112 -113 -147 -184 -28 -56 -44 -136 -29 -136
5 0 31 44 58 97 35 69 69 117 118 168 37 40 68 75 68 79 0 14 -30 4 -68 -24z"/>
<path d="M3074 3511 c-37 -22 -113 -108 -142 -160 l-22 -39 56 -47 56 -48
-107 -107 -107 -108 54 -41 c30 -22 59 -41 65 -41 17 0 159 152 195 210 95
150 123 303 67 374 -25 32 -70 34 -115 7z"/>
<path d="M2763 3487 c-49 -74 -93 -185 -108 -269 -5 -30 -3 -38 9 -38 10 0 23
29 41 88 15 48 44 119 66 158 21 39 39 77 39 83 0 22 -25 10 -47 -22z"/>
<path d="M1500 3398 c0 -6 13 -32 29 -57 27 -42 36 -67 55 -153 4 -17 13 -28
23 -28 40 0 -15 187 -69 233 -23 20 -38 22 -38 5z"/>
<path d="M1633 3385 c6 -42 37 -167 45 -183 25 -49 42 33 22 104 -7 23 -25 57
-42 76 l-29 33 4 -30z"/>
<path d="M2029 3376 c-62 -17 -148 -65 -161 -89 -8 -16 -7 -19 3 -14 122 52
165 67 222 77 44 8 67 17 67 26 0 18 -66 17 -131 0z"/>
<path d="M3326 3373 c-3 -10 -8 -36 -12 -58 -4 -22 -18 -71 -31 -109 -27 -80
-26 -76 -13 -76 30 0 98 186 86 236 -7 28 -22 31 -30 7z"/>
<path d="M2280 3310 c0 -5 19 -14 43 -20 23 -6 61 -19 85 -30 23 -11 49 -20
57 -20 37 0 1 40 -58 65 -40 17 -127 21 -127 5z"/>
<path d="M2060 3281 c-52 -16 -131 -62 -165 -96 -53 -53 -47 -74 9 -31 46 34
129 74 202 97 35 11 64 24 64 29 0 12 -74 12 -110 1z"/>
<path d="M2247 3190 c-72 -14 -68 -30 9 -30 38 0 96 -7 129 -15 75 -17 96 -3
34 24 -54 23 -121 31 -172 21z"/>
<path d="M3186 3024 c-16 -26 -53 -73 -83 -104 -29 -32 -53 -60 -53 -64 0 -32
122 81 161 148 32 57 35 66 17 66 -7 0 -26 -21 -42 -46z"/>
<path d="M2320 3032 c0 -20 101 -44 181 -44 76 0 99 5 99 21 0 5 -46 11 -102
15 -57 3 -120 9 -140 12 -23 4 -38 2 -38 -4z"/>
<path d="M2735 2909 c-22 -5 -78 -8 -125 -8 -111 0 -110 0 -110 -10 0 -34 189
-42 258 -11 24 11 41 24 37 30 -3 5 -9 9 -13 9 -4 -1 -25 -5 -47 -10z"/>
<path d="M3190 2854 c-25 -37 -69 -91 -99 -120 -30 -29 -52 -56 -48 -60 11
-12 93 44 131 90 41 51 86 125 86 144 0 29 -28 7 -70 -54z"/>
<path d="M1016 2850 c-127 -39 -158 -241 -45 -302 40 -21 68 -23 112 -4 55 22
124 116 148 199 7 26 6 29 -11 24 -14 -4 -25 4 -40 30 -31 53 -95 73 -164 53z
m3 -67 c-56 -47 -73 -117 -43 -175 16 -32 9 -32 -28 0 -42 36 -6 156 56 186
46 23 51 19 15 -11z"/>
<path d="M2355 2830 c-9 -15 35 -38 105 -56 71 -18 163 -15 215 7 27 12 18 14
-95 20 -69 4 -146 14 -172 23 -27 8 -50 11 -53 6z"/>
<path d="M2781 2752 c-107 -68 -121 -94 -27 -48 84 41 177 119 139 115 -5 0
-55 -30 -112 -67z"/>
<path d="M3264 2773 c-15 -27 -40 -67 -56 -90 -30 -45 -33 -53 -18 -53 18 0
82 73 101 114 37 82 16 104 -27 29z"/>
<path d="M2946 2731 c-21 -21 -67 -56 -102 -76 -35 -21 -64 -40 -64 -42 0 -10
75 9 113 29 41 21 127 100 127 118 0 22 -38 8 -74 -29z"/>
<path d="M1969 2653 c-57 -39 -134 -100 -181 -145 -28 -27 -29 -29 -14 -55 9
-16 20 -40 25 -54 8 -22 26 -32 98 -59 112 -41 190 -39 273 6 47 25 140 123
140 146 0 4 -27 43 -59 86 -67 89 -104 112 -179 112 -41 0 -59 -6 -103 -37z
m22 -82 c-30 -57 -36 -117 -18 -168 8 -24 12 -43 8 -43 -21 0 -70 43 -85 75
-30 63 0 128 79 169 16 8 31 14 33 12 2 -2 -6 -22 -17 -45z"/>
<path d="M2353 2676 c10 -31 145 -46 220 -25 72 20 37 32 -96 34 -86 1 -126
-2 -124 -9z"/>
<path d="M2876 2549 c-92 -45 -158 -70 -228 -84 -16 -3 -28 -10 -28 -17 0 -7
18 -9 58 -5 88 8 332 117 332 148 0 18 -38 6 -134 -42z"/>
<path d="M3085 2545 c-33 -19 -100 -51 -148 -72 -99 -41 -120 -59 -61 -51 87
12 300 116 291 142 -6 19 -23 15 -82 -19z"/>
<path d="M3391 2515 c-12 -31 -21 -60 -21 -65 0 -5 -19 -48 -42 -94 -42 -85
-45 -115 -10 -82 44 39 112 199 112 263 0 49 -16 40 -39 -22z"/>
<path d="M3366 2181 c-62 -83 -77 -111 -58 -111 22 0 152 159 152 187 0 33
-33 6 -94 -76z"/>
<path d="M875 2249 c-81 -10 -151 -53 -180 -110 -21 -40 -28 -119 -15 -169 17
-65 51 -109 129 -168 67 -51 69 -54 74 -105 2 -29 3 -55 0 -59 -2 -5 -37 -8
-77 -8 -83 0 -106 -15 -106 -69 0 -65 159 -177 285 -200 89 -17 364 -14 467 4
138 24 334 99 346 133 8 24 -33 25 -137 1 -82 -19 -133 -24 -226 -23 -130 1
-193 16 -341 85 -38 17 -91 39 -119 49 l-50 17 -3 65 -3 65 43 12 c62 18 169
77 217 118 49 41 79 96 87 156 5 37 2 47 -20 74 -78 92 -239 150 -371 132z"/>
<path d="M3411 1981 c-44 -49 -81 -92 -81 -95 0 -20 35 4 108 72 76 72 101
112 68 112 -7 0 -50 -40 -95 -89z"/>
<path d="M3444 1867 c-49 -51 -123 -122 -164 -159 -41 -36 -72 -69 -68 -73 21
-22 348 267 348 308 0 34 -29 15 -116 -76z"/>
<path d="M3435 1653 c-44 -41 -122 -105 -174 -141 -52 -36 -89 -68 -83 -70 19
-6 121 45 182 90 87 66 185 172 174 189 -9 15 -17 10 -99 -68z"/>
<path d="M3574 1575 c-66 -85 -72 -95 -52 -95 23 0 121 109 132 148 14 45 -21
22 -80 -53z"/>
<path d="M3348 1402 c-42 -37 -96 -83 -120 -103 -49 -42 -45 -61 8 -36 70 34
224 169 224 198 0 24 -42 2 -112 -59z"/>
<path d="M3640 1354 c-30 -32 -85 -90 -122 -130 -61 -63 -81 -94 -61 -94 31 0
194 165 229 233 28 53 8 50 -46 -9z"/>
<path d="M3388 1239 c-78 -66 -163 -131 -188 -144 -57 -30 -24 -33 40 -4 84
38 310 228 310 260 0 21 -25 3 -162 -112z"/>
<path d="M3522 1077 c-42 -40 -96 -87 -120 -106 -24 -18 -41 -36 -38 -38 19
-19 256 170 256 205 0 25 -23 10 -98 -61z"/>
<path d="M3261 1000 c-94 -71 -151 -104 -273 -155 -77 -32 -89 -48 -26 -33
104 23 271 109 357 185 46 40 65 73 43 73 -5 0 -50 -32 -101 -70z"/>
<path d="M3210 859 c-153 -95 -269 -143 -427 -175 -13 -2 -23 -9 -23 -14 0
-27 161 3 271 50 86 36 259 148 259 167 0 19 -9 16 -80 -28z"/>
<path d="M0 110 l0 -110 2030 0 2030 0 0 110 0 110 -2030 0 -2030 0 0 -110z
m193 49 c30 -37 19 -98 -20 -107 -69 -16 -91 -14 -107 9 -29 42 -16 101 27
119 32 14 79 3 100 -21z m127 -33 c0 -45 -23 -75 -47 -60 -26 16 -23 57 5 69
12 5 22 16 22 23 0 7 5 10 10 7 6 -3 10 -21 10 -39z m477 -3 c2 -20 1 -43 -4
-52 -4 -10 -9 1 -13 34 -3 28 -4 54 -2 58 7 15 15 -2 19 -40z m-46 17 c5 0 9
-4 9 -10 0 -5 -7 -10 -15 -10 -8 0 -15 -7 -15 -16 0 -14 3 -14 15 -4 12 10 15
9 15 -8 0 -20 -25 -36 -41 -26 -5 3 -9 16 -9 30 0 31 -18 31 -30 0 -11 -29
-26 -40 -42 -30 -8 5 -7 10 4 18 9 6 17 20 19 31 4 19 43 36 67 29 8 -2 18 -4
23 -4z m-381 -9 c0 -6 -4 -13 -10 -16 -5 -3 -10 -15 -10 -26 0 -10 -4 -19 -10
-19 -11 0 -13 30 -4 54 7 17 34 22 34 7z m65 -1 c4 -6 2 -17 -5 -25 -7 -9 -8
-15 0 -20 5 -3 10 -10 10 -16 0 -13 -34 -11 -48 3 -13 13 -16 50 -5 61 10 11
41 8 48 -3z m73 -2 c32 -32 -2 -79 -42 -56 -28 16 -14 68 19 68 6 0 16 -5 23
-12z m112 -7 c6 -13 7 -28 1 -43 -10 -23 -10 -23 -10 5 -1 31 -21 38 -21 7 0
-11 -4 -20 -10 -20 -5 0 -10 9 -10 20 0 11 -4 20 -10 20 -5 0 -10 -9 -10 -20
0 -11 -4 -20 -10 -20 -14 0 -13 43 2 58 19 19 66 15 78 -7z m278 -25 c2 -25 0
-36 -7 -31 -6 3 -12 16 -12 28 -1 20 -2 20 -6 2 -8 -34 -23 -41 -23 -12 0 15
-4 27 -10 27 -5 0 -10 -12 -10 -26 0 -14 -4 -23 -10 -19 -11 7 -14 58 -3 69 4
4 23 6 43 4 33 -3 35 -5 38 -42z m71 30 c9 -10 9 -16 1 -21 -6 -4 -8 -15 -5
-26 7 -22 -14 -26 -33 -7 -13 13 -16 50 -5 61 11 11 30 8 42 -7z m91 5 c8 -6
19 -7 24 -3 6 3 44 7 84 8 68 1 73 0 78 -22 7 -29 -3 -61 -15 -48 -5 5 -11 18
-14 29 -3 15 -5 13 -6 -8 -1 -34 -22 -32 -32 4 l-7 24 -1 -26 c-1 -23 -4 -25
-43 -23 -24 0 -45 2 -48 4 -3 1 -9 1 -15 0 -37 -10 -85 -7 -85 6 0 8 6 11 17
7 11 -4 14 -3 9 5 -9 15 11 52 27 52 7 0 19 -4 27 -9z m2819 -11 c23 0 41 5
41 10 0 7 6 7 18 1 9 -5 26 -12 36 -16 15 -4 17 -8 8 -17 -13 -13 -162 -18
-162 -5 0 4 -8 4 -17 -1 -22 -10 -93 -1 -96 13 -1 6 16 11 38 13 22 2 44 7 49
12 5 5 17 5 27 0 10 -6 36 -10 58 -10z m-579 -4 c0 -20 -25 -37 -44 -30 -9 3
-16 15 -16 25 0 14 7 19 30 19 19 0 30 -5 30 -14z m40 3 c0 -8 4 -8 13 -1 20
16 127 13 134 -5 6 -15 -15 -36 -27 -28 -4 2 -37 5 -73 6 -58 2 -67 4 -67 20
0 11 5 19 10 19 6 0 10 -5 10 -11z m280 -9 c0 -25 -20 -27 -21 -2 -1 16 -2 16
-6 0 -5 -20 -33 -24 -34 -5 0 10 -2 10 -6 0 -7 -19 -23 -16 -23 5 -1 16 -1 16
-14 -1 -13 -17 -14 -16 -19 3 -5 19 0 20 59 20 57 0 64 -2 64 -20z m68 3 c5
-17 -26 -29 -40 -15 -6 6 -7 15 -3 22 9 14 37 9 43 -7z"/>
<path d="M96 144 c-9 -8 -16 -23 -15 -32 0 -14 2 -14 6 -2 3 8 12 23 21 33 19
21 9 23 -12 1z"/>
<path d="M115 110 c-8 -13 5 -13 25 0 13 8 13 10 -2 10 -9 0 -20 -4 -23 -10z"/>
<path d="M275 109 c-4 -6 -5 -13 -2 -16 7 -7 27 6 27 18 0 12 -17 12 -25 -2z"/>
<path d="M480 101 c0 -6 5 -13 10 -16 6 -3 10 1 10 9 0 9 -4 16 -10 16 -5 0
-10 -4 -10 -9z"/>
<path d="M1030 100 c0 -5 10 -10 23 -10 18 0 19 2 7 10 -19 13 -30 13 -30 0z"/>
</g>
</svg>
