<?xml version="1.0" standalone="no"?>
<!DOCTYPE svg PUBLIC "-//W3C//DTD SVG 20010904//EN"
 "http://www.w3.org/TR/2001/REC-SVG-20010904/DTD/svg10.dtd">
<svg version="1.0" xmlns="http://www.w3.org/2000/svg"
 width="62.000000pt" height="62.000000pt" viewBox="0 0 62.000000 62.000000"
 preserveAspectRatio="xMidYMid meet">

<g transform="translate(0.000000,62.000000) scale(0.100000,-0.100000)"
fill="#000000" stroke="none">
<path d="M263 549 c-18 -5 -33 -16 -33 -24 0 -8 -3 -14 -7 -14 -21 3 -33 -2
-33 -16 0 -9 -6 -12 -15 -9 -15 6 -45 -17 -45 -36 0 -10 -8 -22 -38 -55 -7 -8
-10 -20 -6 -26 3 -6 1 -15 -7 -19 -21 -14 -15 -102 12 -155 54 -109 179 -160
301 -123 51 15 121 77 147 131 22 45 29 127 11 127 -5 0 -10 10 -10 21 0 27
-51 111 -90 149 -17 16 -30 26 -30 22 0 -4 -4 -1 -9 6 -8 13 -71 32 -101 31
-8 -1 -30 -5 -47 -10z m185 -79 c34 -21 71 -87 72 -125 0 -12 5 -26 11 -32 8
-8 -5 -23 -52 -57 -35 -25 -68 -50 -74 -54 -37 -30 -97 -55 -110 -47 -8 6 -52
36 -98 67 -93 63 -109 79 -99 94 10 14 117 95 170 128 29 18 50 25 64 20 13
-4 18 -2 14 4 -16 27 59 28 102 2z"/>
<path d="M275 411 c-11 -5 -29 -18 -39 -30 l-19 -21 37 0 c20 0 64 -9 97 -20
34 -12 63 -19 66 -16 6 6 -23 60 -40 75 -20 16 -77 23 -102 12z"/>
<path d="M227 334 c-22 -12 -27 -20 -22 -37 18 -63 56 -97 110 -97 33 0 68 18
60 31 -4 5 -1 8 5 7 6 -2 18 7 27 19 14 21 14 24 -16 40 -17 10 -31 21 -31 25
0 4 -7 5 -15 2 -8 -4 -15 -2 -15 4 0 5 -11 7 -25 4 -14 -2 -31 0 -38 6 -8 7
-20 6 -40 -4z"/>
</g>
</svg>
